<svg width="111" height="24" viewBox="0 0 111 24" fill="none" xmlns="http://www.w3.org/2000/svg">
<path fill-rule="evenodd" clip-rule="evenodd" d="M12 4.95679C11.3459 3.21054 10.5209 1.57379 9.90995 0.965868C8.62738 -0.310443 6.5611 -0.323541 5.29476 0.936615C4.28083 1.9456 4.08718 3.46494 4.70863 4.68566C3.48192 4.06725 1.95514 4.25996 0.941204 5.26894C-0.325126 6.5291 -0.311965 8.58531 0.970601 9.86162C1.59722 10.4852 3.3202 11.3416 5.12531 12C3.3202 12.6584 1.59722 13.5148 0.970601 14.1384C-0.311965 15.4147 -0.325126 17.4709 0.941204 18.7311C1.95514 19.74 3.48192 19.9328 4.70863 19.3143C4.08718 20.5351 4.28083 22.0544 5.29476 23.0634C6.5611 24.3235 8.62738 24.3104 9.90995 23.0341C10.5209 22.4262 11.3459 20.7895 12 19.0432C12.6541 20.7895 13.4791 22.4262 14.09 23.0341C15.3726 24.3104 17.4389 24.3235 18.7052 23.0634C19.7192 22.0544 19.9128 20.5351 19.2914 19.3143C20.5181 19.9328 22.0449 19.74 23.0588 18.7311C24.3251 17.4709 24.312 15.4147 23.0294 14.1384C22.4028 13.5148 20.6798 12.6584 18.8747 12C20.6798 11.3416 22.4028 10.4852 23.0294 9.86162C24.312 8.58531 24.3251 6.5291 23.0588 5.26894C22.0449 4.25996 20.5181 4.06725 19.2914 4.68566C19.9128 3.46494 19.7192 1.9456 18.7052 0.936615C17.4389 -0.323541 15.3726 -0.310443 14.09 0.965868C13.4791 1.57379 12.6541 3.21054 12 4.95679ZM14.6815 12C14.7243 10.44 15.5038 8.87024 17.0199 6.94608C15.1105 8.43592 13.5483 9.211 12 9.27108C10.4517 9.211 8.88953 8.43592 6.98011 6.94608C8.49621 8.87024 9.27574 10.44 9.31846 12C9.27574 13.56 8.49621 15.1298 6.98011 17.0539C8.88953 15.5641 10.4517 14.789 12 14.7289C13.5483 14.789 15.1105 15.5641 17.0199 17.0539C15.5038 15.1298 14.7243 13.56 14.6815 12Z" fill="#CAFF03"/>
<path d="M103.736 20.25C99.5392 20.25 96.8776 18.1516 96.8776 13.6676V10.2108C96.8776 5.80417 99.5392 3.74995 103.736 3.74995C107.922 3.74995 110.594 5.74895 110.594 10.2108V13.6676C110.594 18.1516 107.922 20.25 103.736 20.25ZM102.002 14.4738C102.002 15.7329 102.477 16.6606 103.736 16.6606C104.995 16.6606 105.47 15.7329 105.47 14.4738V9.52606C105.47 8.26702 104.995 7.33931 103.736 7.33931C102.477 7.33931 102.002 8.26702 102.002 9.52606V14.4738Z" fill="white"/>
<path d="M91.9079 19.9187C91.5175 19.9187 91.201 19.6023 91.201 19.2119V8.4779C91.201 8.37451 91.3087 8.30585 91.4044 8.34496C92.7689 8.90246 94.2599 8.74257 95.5322 8.03182C95.629 7.97775 95.7513 8.04605 95.7513 8.15692V19.2119C95.7513 19.6023 95.4348 19.9187 95.0444 19.9187H91.9079Z" fill="white"/>
<path d="M92.986 3.8745C91.6419 4.23466 90.7965 5.26154 91.0995 6.39233C91.3968 7.50179 92.6452 7.97908 93.9893 7.61891C95.3441 7.25589 96.1866 6.21835 95.8894 5.10889C95.5864 3.9781 94.3408 3.51147 92.986 3.8745Z" fill="white"/>
<path d="M87.9718 20.1506C86.5913 20.1506 85.5752 19.1345 85.5752 17.7982C85.5752 16.4618 86.5913 15.4568 87.9718 15.4568C89.3413 15.4568 90.3573 16.4618 90.3573 17.7982C90.3573 19.1345 89.3413 20.1506 87.9718 20.1506Z" fill="white"/>
<path d="M80.5105 19.9186C80.2012 19.9186 79.9279 19.7175 79.8358 19.4223L77.5609 12.1324V19.2118C77.5609 19.6021 77.2445 19.9186 76.8541 19.9186H73.4194C73.029 19.9186 72.7125 19.6021 72.7125 19.2118V4.78807C72.7125 4.3977 73.029 4.08124 73.4194 4.08124H76.8541C77.2445 4.08124 77.5609 4.3977 77.5609 4.78807V10.8182L79.8328 4.5473C79.9342 4.26756 80.1999 4.08124 80.4974 4.08124H84.7404C84.9981 4.08124 85.1691 4.34815 85.0615 4.58228L82.0117 11.2158L85.1117 19.4405C85.1988 19.6717 85.028 19.9186 84.781 19.9186H80.5105Z" fill="white"/>
<path d="M65.07 20.25C60.9616 20.25 58.4435 18.1406 58.4435 14.0653V10.0341C58.4435 5.88153 61.1714 3.75 65.1694 3.75C68.7616 3.75 71.4441 5.43789 71.67 9.24877C71.6873 9.54103 71.4481 9.78012 71.1553 9.78012H67.0248C66.8052 9.78012 66.6272 9.60211 66.6272 9.38253C66.6272 8.17871 66.2738 7.33936 65.1252 7.33936C63.9766 7.33936 63.568 8.18976 63.568 9.37149V14.6285C63.568 15.7329 63.9324 16.6496 65.1473 16.6496C66.3069 16.6496 66.6272 15.755 66.6272 14.5291C66.6272 14.1448 66.9387 13.8333 67.323 13.8333H71.1553C71.4481 13.8333 71.687 14.0723 71.6733 14.3647C71.4685 18.7373 68.7036 20.25 65.07 20.25Z" fill="white"/>
<path d="M51.2098 20.25C47.1013 20.25 45.0913 18.5492 45.0913 15.6114V4.78811C45.0913 4.39774 45.4078 4.08128 45.7981 4.08128H49.2439C49.6343 4.08128 49.9507 4.39774 49.9507 4.78811V15.3905C49.9507 16.2078 50.3925 16.6716 51.2098 16.6716C52.0381 16.6716 52.4688 16.2078 52.4688 15.3905V4.78811C52.4688 4.39774 52.7853 4.08128 53.1756 4.08128H56.6214C57.0118 4.08128 57.3283 4.39774 57.3283 4.78811V15.6114C57.3283 18.5492 55.3182 20.25 51.2098 20.25Z" fill="white"/>
<path d="M43.8735 16.499C43.8494 16.3164 43.6972 16.1747 43.513 16.1747H39.3484V4.78811C39.3484 4.39774 39.0319 4.08128 38.6416 4.08128H35.2068C34.8165 4.08128 34.5 4.39774 34.5 4.78811V19.2118C34.5 19.6022 34.8165 19.9186 35.2068 19.9186H45.4928C45.5945 19.9186 45.6398 19.7865 45.5626 19.7203C44.5912 18.8883 44.0419 17.7765 43.8735 16.499Z" fill="white"/>
</svg>
